HIERARCHY
ROOT Hips
{
  OFFSET -69.4423 88.0299 51.6846
  CHANNELS 6 Xposition Yposition Zposition Zrotation Xrotation Yrotation
  JOINT Spine
  {
    OFFSET 12.0259 -0.162853 1.93176e-005
    CHANNELS 3 Zrotation Xrotation Yrotation
    JOINT Spine1
    {
      OFFSET 15.3169 -0.0121909 0
      CHANNELS 3 Zrotation Xrotation Yrotation
      JOINT Spine2
      {
        OFFSET 15.3176 -0.0121922 0
        CHANNELS 3 Zrotation Xrotation Yrotation
        JOINT Neck
        {
          OFFSET 19.9142 1.56236 0
          CHANNELS 3 Zrotation Xrotation Yrotation
          JOINT Head
          {
            OFFSET 6.92646 0 0
            CHANNELS 3 Zrotation Xrotation Yrotation
            End Site
            {
              OFFSET 20.7666 0 0
            }
          }
          JOINT LeftShoulder
          {
            OFFSET -4.94072 -1.14703 8.14416
            CHANNELS 3 Zrotation Xrotation Yrotation
            JOINT LeftArm
            {
              OFFSET 14.108 0 -2.74767e-005
              CHANNELS 3 Zrotation Xrotation Yrotation
              JOINT LeftForeArm
              {
                OFFSET 28.5802 -0.0783412 -0.0284884
                CHANNELS 3 Zrotation Xrotation Yrotation
                JOINT LeftHand
                {
                  OFFSET 27.092 0 0
                  CHANNELS 3 Zrotation Xrotation Yrotation
                  End Site
                  {
                    OFFSET 9.55928 -0.186424 0.145352
                  }
                }
              }
            }
          }
          JOINT RightShoulder
          {
            OFFSET -7.15748 -1.33027 -6.24935
            CHANNELS 3 Zrotation Xrotation Yrotation
            JOINT RightArm
            {
              OFFSET 14.108 0 1.82997e-005
              CHANNELS 3 Zrotation Xrotation Yrotation
              JOINT RightForeArm
              {
                OFFSET 28.5802 -0.0707221 2.30684e-005
                CHANNELS 3 Zrotation Xrotation Yrotation
                JOINT RightHand
                {
                  OFFSET 27.092 0 -1.30073e-005
                  CHANNELS 3 Zrotation Xrotation Yrotation
                  End Site
                  {
                    OFFSET 9.55929 -0.186417 -0.145354
                  }
                }
              }
            }
          }
        }
      }
    }
  }
  JOINT LeftUpLeg
  {
    OFFSET 0.00499725 -0.534999 8.837
    CHANNELS 3 Zrotation Xrotation Yrotation
    JOINT LeftLeg
    {
      OFFSET 39.9035 -0.00124594 0.000252775
      CHANNELS 3 Zrotation Xrotation Yrotation
      JOINT LeftFoot
      {
        OFFSET 39.6689 0 0
        CHANNELS 3 Zrotation Xrotation Yrotation
        JOINT LeftToe
        {
          OFFSET 10.1624 13.6296 0
          CHANNELS 3 Zrotation Xrotation Yrotation
          End Site
          {
            OFFSET 8.38147 0 0
          }
        }
      }
    }
  }
  JOINT RightUpLeg
  {
    OFFSET 0.00499725 -0.535 -8.837
    CHANNELS 3 Zrotation Xrotation Yrotation
    JOINT RightLeg
    {
      OFFSET 39.9036 -0.000268477 0.000106433
      CHANNELS 3 Zrotation Xrotation Yrotation
      JOINT RightFoot
      {
        OFFSET 39.6689 1.17892e-005 0
        CHANNELS 3 Zrotation Xrotation Yrotation
        JOINT RightToe
        {
          OFFSET 10.1624 13.6296 0
          CHANNELS 3 Zrotation Xrotation Yrotation
          End Site
          {
            OFFSET 8.38147 0 0
          }
        }
      }
    }
  }
}
MOTION
Frames:	18
Frame Time:	0.0333333
-79.4129 88.8748 72.8562 -50.6132 85.3402 143.765 1.91921 -0.314783 0.995314 3.8437 -0.595507 2.00079 3.8437 -0.595521 2.00078 -7.4709 -3.21864 -14.3553 59.139 -3.66487 10.2053 -174.9 -3.79902 -97.5571 -20.4353 7.36397 87.8921 -24.829 2.68883 -15.6904 10.8082 -84.4009 13.1856 -174.795 -5.48919 70.7798 -18.1769 -4.65691 -82.4697 -26.1938 -3.41042 15.8869 3.6923 85.0847 -3.64421 -10.5744 1.06756 179.796 -45.2791 0.9478 -0.325215 3.61494 2.29741 0.463996 90 -1.93815e-014 -1.09332e-014 -17.8536 0.465548 -179.566 -31.5706 -0.507221 0.303686 -4.40888 0.752408 0.0404191 90 -1.25234e-014 -4.77083e-015 
-79.2254 88.9618 72.0319 -50.382 85.1387 143.637 1.97868 -0.525716 0.997776 3.96644 -1.01611 2.01338 3.96642 -1.01611 2.01337 -7.38785 -2.92905 -14.2076 59.5066 -3.02458 10.0257 -174.88 -3.46306 -97.4497 -21.1081 7.05719 87.7322 -25.0668 2.72554 -15.8174 8.78363 -83.6455 11.194 -174.787 -5.16317 70.8853 -17.1934 -4.72576 -82.4174 -26.2596 -3.42777 15.9167 3.77727 85.2261 -3.74518 -9.49201 1.17126 -179.93 -48.4896 0.953366 -0.146476 0.89694 5.08038 0.564412 90 -8.86455e-015 9.83984e-015 -18.0039 1.06657 -179.642 -30.8828 -0.494328 0.325564 -5.47447 1.40144 0.327646 90 -2.18663e-015 -5.56597e-015 
-78.9329 88.972 71.0716 -54.4897 84.7377 147.997 1.92573 -0.817757 0.979978 3.86571 -1.6015 1.98732 3.8657 -1.6015 1.98731 -7.18978 -2.64933 -14.0962 59.7689 -2.56717 9.65856 -174.987 -3.0983 -97.3979 -22.029 6.90295 87.5512 -25.4048 2.78294 -15.9916 9.1252 -83.9242 11.5916 -174.913 -4.81201 70.9595 -16.0455 -5.15005 -82.4893 -26.2025 -3.42203 15.8866 3.98101 85.2029 -3.94069 -8.35189 0.77301 179.951 -50.88 0.946106 0.0071441 -5.79549 7.85672 1.17084 90 5.96354e-016 -9.14409e-015 -18.8008 0.926493 179.806 -30.8843 -0.477054 0.34642 -6.4662 1.47267 0.466071 90 -1.76918e-014 9.54166e-015 
-78.6573 88.942 70.0088 -57.4474 84.2144 150.925 1.87513 -1.05625 1.01764 3.76967 -2.07798 2.06997 3.76966 -2.07798 2.06996 -6.87163 -2.50309 -13.9819 60.0088 -2.35143 9.36966 -175.24 -2.82799 -97.3467 -22.8414 6.6534 87.3748 -25.885 2.8676 -16.2483 9.65753 -84.0445 12.0895 -175.188 -4.56369 71.0441 -14.6291 -5.68147 -82.7671 -25.7847 -3.33283 15.6689 7.19169 87.0607 -7.10987 -6.65355 0.483778 -179.859 -52.2289 0.943663 0.11718 -10.4973 9.77774 1.97558 90 -3.97569e-016 -4.17448e-015 -19.1605 0.380901 179.421 -31.1327 -0.457898 0.357686 -6.98604 1.65094 0.586872 90 5.56597e-015 1.59028e-015 
-78.3864 88.8092 68.8137 -59.236 84.1129 152.765 1.82484 -1.19628 1.02535 3.67199 -2.35864 2.08909 3.67198 -2.35863 2.08909 -6.74685 -2.38048 -13.9574 60.378 -2.25423 9.09509 -175.303 -2.6216 -97.3664 -23.3179 6.06735 87.041 -26.417 2.96688 -16.5393 10.0237 -84.4238 12.4658 -175.284 -4.39438 71.0533 -12.9603 -6.12351 -82.5863 -25.5538 -3.26846 15.516 3.90131 85.0888 -3.80698 -4.8233 0.445994 -179.724 -52.4314 0.964473 0.183602 -13.6395 11.2536 2.76431 90 -1.90833e-014 -1.19271e-015 -20.1311 0.615318 179.052 -30.3449 -0.437784 0.396051 -8.09439 1.37044 0.618033 90 -5.96354e-016 1.51076e-014 
-78.0381 88.6733 67.4112 -62.057 83.8505 155.746 1.76225 -1.31767 0.992757 3.54848 -2.60349 2.02657 3.54846 -2.60349 2.02656 -6.68854 -2.24639 -13.7456 60.4781 -2.24431 8.69681 -175.283 -2.38453 -97.1822 -23.8022 5.27591 86.5311 -26.7658 3.04172 -16.7435 10.1017 -84.5548 12.6231 -175.308 -4.22067 71.2443 -12.0369 -6.74114 -82.6956 -24.9832 -3.13975 15.2146 4.22691 85.1757 -4.13557 -2.58025 0.199753 -179.929 -50.3011 1.02368 0.183695 -17.8798 13.1704 4.10633 90 -7.95139e-015 -1.63003e-014 -21.1574 0.39504 178.437 -31.0028 -0.40705 0.411185 -8.71813 1.31379 0.66141 90 -4.37326e-015 6.36111e-015 
-77.595 88.3426 65.8607 -64.317 83.652 158.395 1.69896 -1.42127 0.919434 3.4221 -2.81394 1.88164 3.42209 -2.81394 1.88163 -6.5298 -2.21387 -14.2084 60.3972 -1.70575 9.2146 -175.427 -2.33045 -97.6716 -24.5467 4.6091 86.1081 -27.3771 3.16322 -17.0809 11.4029 -85.1883 13.9632 -175.492 -4.21438 70.7868 -11.5933 -7.49661 -82.7732 -24.386 -3.00395 14.889 4.94467 85.6113 -4.8465 0.179469 -0.419469 179.364 -46.1702 1.12939 0.110185 -19.5899 15.1961 5.26247 90 1.27222e-014 7.55382e-015 -22.7713 0.693093 177.524 -31.0856 -0.36526 0.445696 -9.594 0.943395 0.601906 90 5.1684e-015 -7.15625e-015 
-77.1699 87.9387 64.0923 -66.5963 83.382 160.859 1.6294 -1.54887 0.885203 3.28434 -3.07124 1.81526 3.28433 -3.07125 1.81524 -6.50149 -2.03661 -14.1003 60.5229 -1.72048 8.68576 -175.375 -2.06127 -97.5977 -24.9578 3.86204 85.6512 -27.7389 3.23953 -17.2931 11.2017 -84.8511 13.6962 -175.489 -4.00389 70.8833 -11.8084 -8.38808 -83.0269 -23.931 -2.91011 14.6587 10.9434 87.7725 -10.8358 3.11916 -1.29617 178.823 -40.7612 1.24097 -0.0331794 -17.2294 16.6479 5.30583 90 1.59028e-015 5.56597e-015 -24.2218 0.583047 176.78 -31.5769 -0.324428 0.472912 -9.92172 0.524873 0.454577 90 2.78299e-015 -5.56597e-015 
-76.6862 87.5412 62.023 -69.3967 83.1115 163.983 1.56801 -1.68252 0.810824 3.16172 -3.34155 1.66865 3.16172 -3.34156 1.66864 -6.49034 -1.88878 -14.1512 60.4584 -1.46135 8.56962 -175.319 -1.84463 -97.6748 -25.6966 3.00098 85.0513 -28.1514 3.31421 -17.5368 10.9108 -84.9804 13.3107 -175.481 -3.87787 70.8209 -11.4705 -8.68771 -83.0864 -23.2015 -2.74901 14.2661 9.07977 87.3052 -8.96425 5.73395 -2.39316 178.05 -34.5972 1.31737 -0.220252 -14.7398 17.5429 5.04127 90 -1.11319e-014 -1.43125e-014 -26.1405 0.799603 175.873 -31.9849 -0.259514 0.497418 -11.4759 0.373267 0.490336 90 4.96962e-015 3.97569e-015 
-76.1285 87.096 59.6823 -72.7492 82.7636 167.646 1.55914 -1.80345 0.737129 3.14369 -3.58552 1.52432 3.14368 -3.58553 1.5243 -6.84279 -1.76767 -14.1016 60.6655 -1.36852 8.44797 -174.905 -1.72005 -97.6347 -26.4878 1.85847 84.3507 -28.6235 3.41916 -17.8203 10.616 -84.9415 13.0572 -175.119 -3.86583 70.8791 -10.9043 -8.6123 -83.1593 -22.9355 -2.68762 14.1156 7.79505 86.8798 -7.67825 7.40936 -3.63978 177.312 -30.8224 1.32175 -0.340724 -8.14057 17.4508 3.43997 90 -2.06736e-014 -3.18055e-015 -27.765 0.800602 174.885 -31.2402 -0.210317 0.537779 -12.9093 -0.310376 0.287167 90 6.55989e-015 2.38542e-015 
-75.5995 86.7541 57.0755 -76.2035 82.2243 171.2 1.5404 -1.93038 0.701788 3.10698 -3.84053 1.4567 3.10697 -3.84054 1.45668 -7.0356 -1.68829 -13.9291 60.8137 -1.38496 8.24777 -174.658 -1.58434 -97.4867 -27.3571 0.802165 83.6994 -29.0442 3.50957 -18.0788 10.6431 -85.0353 13.0724 -174.917 -3.85623 71.054 -10.3184 -8.42201 -83.2175 -22.6752 -2.63749 13.9835 7.15867 86.5567 -7.03373 7.85956 -4.09594 176.755 -28.552 1.28616 -0.434107 -1.87246 16.3488 1.94183 90 -4.77083e-015 -4.77083e-015 -28.8815 1.43704 174.13 -29.4583 -0.138574 0.56622 -15.4983 0.196223 0.65915 90 -6.95746e-015 -9.54166e-015 
-74.9741 86.4904 54.3216 -77.4122 82.0894 173.219 1.57359 -1.97443 0.494477 3.16701 -3.93399 1.04412 3.16701 -3.934 1.04411 -7.04896 -1.68738 -13.9262 60.7861 -1.1222 8.541 -174.597 -1.51503 -97.4617 -27.7459 -0.581216 82.8507 -28.8341 3.48037 -18.022 10.992 -85.0023 13.4388 -174.918 -3.94512 71.0561 -9.67833 -8.05201 -83.3937 -22.6309 -2.62495 13.9591 6.04772 86.2205 -5.91534 7.92154 -3.27507 175.135 -26.4513 1.26112 -0.501008 1.82856 13.9334 1.05258 90 -2.38542e-015 5.56597e-015 -29.3702 2.72938 172.785 -27.1456 -0.0690228 0.595582 -17.2496 0.896159 1.11912 90 -1.17283e-014 -7.95139e-016 
-74.3672 86.3468 51.6316 -77.0653 82.0448 173.553 1.66983 -1.9728 0.304983 3.35314 -3.93539 0.668134 3.35313 -3.93539 0.668128 -7.10743 -1.66568 -13.9521 60.6086 -0.952236 8.68066 -174.478 -1.43922 -97.4505 -27.5533 -2.0348 82.1287 -28.4424 3.41352 -17.8738 10.5012 -84.6283 12.8824 -174.866 -4.00654 71.0285 -8.84464 -7.58048 -83.7206 -22.8699 -2.68204 14.1007 4.9701 85.4431 -4.86131 7.69294 -3.27062 173.585 -24.7348 1.23846 -0.573838 4.20085 11.7392 0.606216 90 -3.18055e-015 4.77083e-015 -29.2623 3.18794 171.402 -24.7491 -0.0547694 0.650085 -15.708 1.48612 1.26999 90 7.05686e-015 -7.95139e-016 
-73.7526 86.3277 48.9589 -77.6478 81.9064 174.453 1.71014 -1.97867 0.186736 3.4298 -3.95038 0.433047 3.42979 -3.95039 0.433036 -7.09735 -1.5159 -13.8128 60.6367 -0.844723 8.33976 -174.434 -1.24211 -97.3353 -27.3399 -2.4972 81.9154 -28.7508 3.49289 -18.0513 9.07078 -84.0025 11.5463 -174.839 -3.85483 71.1761 -8.38438 -7.37995 -84.1557 -23.1871 -2.75243 14.2751 4.65241 85.1293 -4.54995 7.08857 -4.27921 172.513 -22.7848 1.21885 -0.67542 5.16151 10.3935 0.465152 90 -2.14687e-014 9.54166e-015 -29.4965 2.58901 170.131 -24.1995 -0.0601533 0.713446 -10.0425 3.04103 1.31841 90 -1.11816e-015 9.93923e-015 
-73.4075 86.5524 46.543 -77.0852 82.1944 173.635 1.71267 -1.81629 0.171662 3.4377 -3.6261 0.398216 3.4377 -3.62611 0.398207 -6.9885 -1.44089 -13.8419 60.7301 -0.535742 8.3808 -174.524 -1.15568 -97.3768 -27.4185 -2.44747 81.9306 -28.6369 3.4687 -17.9946 9.24975 -84.175 11.7547 -174.942 -3.77429 71.1402 -8.70349 -7.62782 -84.5017 -23.5819 -2.8378 14.492 5.31329 85.8194 -5.21172 6.33842 -3.73592 172.222 -21.7606 1.20181 -0.729618 5.69066 9.61473 0.424636 90 -7.55382e-015 7.95139e-016 -29.3307 1.33198 169.89 -23.7857 -0.0457161 0.759526 -6.20102 7.7948 2.30995 90 4.72114e-015 7.15625e-015 
-73.1057 86.7418 44.2599 -75.9851 82.5642 172.597 1.71533 -1.62876 0.0782974 3.43496 -3.25394 0.205629 3.43495 -3.25395 0.205614 -7.04093 -1.32528 -13.7578 60.7622 -0.413315 8.14919 -174.46 -1.06782 -97.3071 -27.3933 -1.97058 82.0171 -28.7159 3.47069 -18.0185 10.3572 -84.8701 12.7427 -174.863 -3.65261 71.2178 -8.3333 -7.56248 -84.7328 -23.5734 -2.82985 14.4772 3.492 83.9847 -3.36265 5.23627 -2.77222 171.688 -21.4029 1.19668 -0.739867 5.31975 9.66488 0.443675 90 -1.98785e-014 -6.36111e-015 -30.2943 -2.02067 169.219 -26.6201 -0.0286583 0.785794 -3.65941 12.452 2.92057 90 -1.63003e-014 -7.95139e-015 
-72.9091 87.1733 42.1062 -72.6473 82.8649 168.826 1.79326 -1.44743 0.0750019 3.59015 -2.8913 0.195524 3.59013 -2.89131 0.19551 -7.11439 -1.18991 -13.5231 60.6191 -0.309851 7.83804 -174.382 -0.972667 -97.0842 -26.8885 -1.06597 82.2723 -28.8061 3.48625 -18.028 10.7876 -85.1137 13.196 -174.733 -3.49274 71.4302 -7.90676 -7.00517 -84.8663 -23.2976 -2.76799 14.3289 2.71379 82.2467 -2.57782 3.91528 -2.40965 171.795 -21.7543 1.1957 -0.75655 4.57348 9.69948 0.529852 90 -1.21259e-014 -7.15625e-015 -30.9842 -4.86435 168.948 -32.0407 -0.0377144 0.730883 -2.36735 13.484 2.70221 90 -1.50082e-014 -6.36111e-015 
-72.7143 87.5499 40.0845 -68.7324 83.4104 164.585 1.80951 -1.20689 0.0384121 3.62102 -2.41147 0.115116 3.62101 -2.41148 0.115107 -6.89581 -1.10629 -13.37 60.2204 0.0271222 7.85167 -174.622 -0.914415 -96.9394 -25.9142 0.252182 82.8229 -28.7805 3.48196 -17.9654 11.0738 -85.2042 13.5344 -174.899 -3.3254 71.5597 -7.31304 -6.47985 -85.0507 -22.8554 -2.67694 14.0994 2.63376 81.7631 -2.48952 2.52418 -2.41044 171.647 -22.2404 1.196 -0.78021 3.4304 8.98922 0.624584 90 -2.14687e-014 3.18055e-015 -31.1439 -5.84062 168.791 -38.6992 -0.0595301 0.594884 -1.49039 10.8301 1.85375 90 7.55382e-015 -0 
